<?xml version="1.0" encoding="utf-8"?>
<svg version="1.1" xmlns:xlink="http://www.w3.org/1999/xlink" width="11px" height="8px" xmlns="http://www.w3.org/2000/svg">
  <g transform="matrix(1 0 0 1 -168 -1290 )">
    <path d="M 10.8897795591183 0.824742268041234  C 10.9632598530393 0.916380297823622  11 1.02176403207332  11 1.14089347079039  C 11 1.26002290950746  10.9632598530393 1.36540664375715  10.8897795591183 1.45704467353954  L 5.75350701402817 7.86254295532643  C 5.68002672010698 7.95418098510882  5.59552438209744 8  5.5 8  C 5.40447561790256 8  5.31997327989302 7.95418098510882  5.24649298597183 7.86254295532643  L 0.110220440881676 1.45704467353954  C 0.0367401469607103 1.36540664375715  0 1.26002290950746  0 1.14089347079039  C 0 1.02176403207332  0.0367401469607103 0.916380297823622  0.110220440881676 0.824742268041234  L 0.661322645290511 0.137457044673567  C 0.734802939211704 0.0458190148911797  0.819305277221247 0  0.914829659318684 0  C 1.01035404141612 0  1.09485637942544 0.0458190148911797  1.16833667334663 0.137457044673567  L 5.5 5.53951890034364  L 9.83166332665337 0.137457044673567  C 9.90514362057456 0.0458190148911797  9.98964595858388 0  10.0851703406813 0  C 10.1806947227788 0  10.2651970607883 0.0458190148911797  10.3386773547095 0.137457044673567  L 10.8897795591183 0.824742268041234  Z " fill-rule="nonzero" fill="#666666" stroke="none" transform="matrix(1 0 0 1 168 1290 )" />
  </g>
</svg>