<?xml version="1.0" encoding="utf-8"?>
<svg version="1.1" xmlns:xlink="http://www.w3.org/1999/xlink" width="9px" height="15px" xmlns="http://www.w3.org/2000/svg">
  <g transform="matrix(1 0 0 1 -27 -1285 )">
    <path d="M 8 13.5822868473233  L 8 1.26900198281555  L 1 1.26900198281555  L 1 13.5822868473233  L 3.87421875 9.55717118308007  L 4.5 8.71447455386647  L 5.12578125 9.55717118308007  L 8 13.5822868473233  Z M 0.815625000000001 0  L 8.184375 0  C 8.2921875 0  8.3953125 0.0297422339722289  8.49375 0.0892267019166866  C 8.6484375 0.175148711169868  8.771484375 0.310641110376764  8.862890625 0.495703899537375  C 8.954296875 0.680766688697986  9 0.885657633840083  9 1.11037673496367  L 9 13.8896232650363  C 9 14.1143423661599  8.954296875 14.319233311302  8.862890625 14.5042961004626  C 8.771484375 14.6893588896232  8.6484375 14.8248512888301  8.49375 14.9107732980833  C 8.4046875 14.9636483807005  8.3015625 14.9900859220093  8.184375 14.9900859220093  C 7.959375 14.9900859220093  7.76484375 14.8843357567746  7.60078125 14.6728354263053  L 4.5 10.4692663582287  L 1.39921875 14.6728354263053  C 1.23046875 14.8909451421018  1.0359375 15  0.815625000000001 15  C 0.707812499999999 15  0.604687500000001 14.9702577660278  0.506250000000001 14.9107732980833  C 0.3515625 14.8248512888301  0.228515625 14.6893588896232  0.137109375000001 14.5042961004626  C 0.0457031249999993 14.319233311302  0 14.1143423661599  0 13.8896232650363  L 0 1.11037673496367  C 0 0.885657633840083  0.0457031249999993 0.680766688697986  0.137109375000001 0.495703899537375  C 0.228515625 0.310641110376764  0.3515625 0.175148711169868  0.506250000000001 0.0892267019166866  C 0.604687500000001 0.0297422339722289  0.707812499999999 0  0.815625000000001 0  Z " fill-rule="nonzero" fill="#145ccd" stroke="none" transform="matrix(1 0 0 1 27 1285 )" />
  </g>
</svg>