<?xml version="1.0" encoding="utf-8"?>
<svg version="1.1" xmlns:xlink="http://www.w3.org/1999/xlink" width="119px" height="138px" xmlns="http://www.w3.org/2000/svg">
  <g transform="matrix(1 0 0 1 -321 -262 )">
    <path d="M 89.5598958333333 5.23660714285715  L 113.731770833333 29.2633928571429  C 115.177951388889 30.7008928571428  116.417534722222 32.6517857142857  117.450520833333 35.1160714285714  C 118.483506944444 37.5803571428571  119 39.8392857142857  119 41.8928571428571  L 119 130.607142857143  C 119 132.660714285714  118.276909722222 134.40625  116.830729166667 135.84375  C 115.384548611111 137.28125  113.628472222222 138  111.5625 138  L 7.4375 138  C 5.37152777777778 138  3.61545138888889 137.28125  2.16927083333333 135.84375  C 0.723090277777778 134.40625  0 132.660714285714  0 130.607142857143  L 0 7.39285714285715  C 0 5.33928571428571  0.723090277777778 3.59374999999999  2.16927083333333 2.15625  C 3.61545138888889 0.718750000000005  5.37152777777778 0  7.4375 0  L 76.8541666666667 0  C 78.9201388888889 0  81.1927083333333 0.513392857142863  83.671875 1.54017857142857  C 86.1510416666667 2.56696428571428  88.1137152777778 3.79910714285714  89.5598958333333 5.23660714285715  Z M 82.509765625 12.1674107142857  C 81.8899739583333 11.5513392857143  80.8311631944445 10.9866071428571  79 10.4732142857143  L 79 40  L 108.463541666667 40  C 107.947048611111 37.9397321428571  107.37890625 36.8872767857143  106.759114583333 36.2712053571429  L 82.509765625 12.1674107142857  Z M 10 128  L 109 128  L 109 50  L 76.8541666666667 50  C 74.7881944444444 49.2857142857143  73.0321180555556 48.5669642857143  71.5859375 47.1294642857143  C 70.1397569444444 45.6919642857143  69.4166666666667 43.9464285714286  69 41.8928571428571  L 69 10  L 10 10  L 10 128  Z M 45.322265625 65.9966517857143  C 46.1486545138889 65.2265625  47.0525173611111 65.046875  48.0338541666667 65.4575892857143  C 49.0668402777778 65.8683035714286  49.5833333333333 66.6383928571429  50 67.7678571428572  L 50 109.660714285714  C 49.5833333333333 110.790178571429  49.0668402777778 111.560267857143  48.0338541666667 111.970982142857  C 47.6206597222222 112.073660714286  47.3107638888889 112.125  47.1041666666667 112.125  C 46.484375 112.125  45.8904079861111 111.893973214286  45.322265625 111.431919642857  L 32.4615885416667 98  L 22.3125 98  C 21.5894097222222 98.5714285714286  20.9954427083333 98.3404017857143  20.5305989583333 97.8783482142857  C 20.0657552083333 97.4162946428572  19.8333333333333 96.8258928571428  20 96.1071428571428  L 20 81.3214285714286  C 19.8333333333333 80.6026785714286  20.0657552083333 80.0122767857143  20.5305989583333 79.5502232142857  C 20.9954427083333 79.0881696428572  21.5894097222222 78.8571428571428  22.3125 78  L 32.4615885416667 78  L 45.322265625 65.9966517857143  Z M 77.2415364583333 117.361607142857  C 78.1712239583333 118.131696428571  79.2042100694444 118.516741071429  80.3404947916667 118.516741071429  C 81.9416232638889 118.516741071429  83.2328559027778 117.900669642857  84.2141927083333 116.668526785714  C 90.876953125 108.505580357143  94.2083333333333 99.1875  94.2083333333333 88.7142857142857  C 94.2083333333333 78.2410714285714  90.876953125 68.9229910714286  84.2141927083333 60.7600446428571  C 83.3878038194445 59.6819196428571  82.27734375 59.0658482142857  80.8828125 58.9118303571429  C 79.48828125 58.7578125  78.2745225694445 59.1171875  77.2415364583333 59.9899553571429  C 76.1569010416667 60.8627232142857  75.5500217013889 61.9793526785714  75.4208984375 63.33984375  C 75.2917751736111 64.7003348214286  75.6662326388889 65.9196428571428  76.5442708333333 66.9977678571428  C 81.7092013888889 73.3125  84.2916666666667 80.5513392857143  84.2916666666667 88.7142857142857  C 84.2916666666667 96.8772321428572  81.7092013888889 104.116071428571  76.5442708333333 110.430803571429  C 75.6662326388889 111.508928571429  75.2917751736111 112.728236607143  75.4208984375 114.088727678571  C 75.5500217013889 115.44921875  76.1569010416667 116.540178571429  77.2415364583333 117.361607142857  Z M 60.5846354166667 105.810267857143  C 61.6176215277778 106.683035714286  62.75390625 107.119419642857  63.9934895833333 107.119419642857  C 65.3880208333333 107.119419642857  66.6017795138889 106.606026785714  67.634765625 105.579241071429  C 72.1282552083333 100.8046875  74.375 95.1830357142857  74.375 88.7142857142857  C 74.375 82.2455357142857  72.1282552083333 76.6238839285714  67.634765625 71.8493303571428  C 66.705078125 70.8738839285714  65.54296875 70.3604910714286  64.1484375 70.3091517857143  C 62.75390625 70.2578125  61.5659722222222 70.6941964285714  60.5846354166667 71.6183035714286  C 59.6032986111111 72.5424107142857  59.0868055555556 73.6847098214286  59.03515625 75.0452008928572  C 58.9835069444445 76.4056919642857  59.4483506944445 77.5993303571429  60.4296875 78.6261160714286  C 63.1154513888889 81.5524553571428  64.4583333333333 84.9151785714286  64.4583333333333 88.7142857142857  C 64.4583333333333 92.5133928571428  63.1154513888889 95.8761160714286  60.4296875 98.8024553571428  C 59.4483506944445 99.8292410714286  58.9835069444445 101.022879464286  59.03515625 102.383370535714  C 59.0868055555556 103.743861607143  59.6032986111111 104.886160714286  60.5846354166667 105.810267857143  Z " fill-rule="nonzero" fill="#000000" stroke="none" transform="matrix(1 0 0 1 321 262 )" />
  </g>
</svg>