<?xml version="1.0" encoding="utf-8"?>
<svg version="1.1" xmlns:xlink="http://www.w3.org/1999/xlink" width="59px" height="17px" xmlns="http://www.w3.org/2000/svg">
  <defs>
    <mask fill="white" id="clip4">
      <path d="M 0 12  L 0 5  C 0 2.19999999999999  2.19999999999999 0  5 0  L 39.4000000000015 0  L 54 0  C 56.8 0  59 2.19999999999999  59 5  L 59 12  C 59 14.8  56.8 17  54 17  L 5 17  C 2.19999999999999 17  0 14.8  0 12  Z " fill-rule="evenodd" />
    </mask>
  </defs>
  <g transform="matrix(1 0 0 1 -486 -304 )">
    <path d="M 0 12  L 0 5  C 0 2.19999999999999  2.19999999999999 0  5 0  L 39.4000000000015 0  L 54 0  C 56.8 0  59 2.19999999999999  59 5  L 59 12  C 59 14.8  56.8 17  54 17  L 5 17  C 2.19999999999999 17  0 14.8  0 12  Z " fill-rule="nonzero" fill="#ffffff" stroke="none" transform="matrix(1 0 0 1 486 304 )" />
    <path d="M 0 12  L 0 5  C 0 2.19999999999999  2.19999999999999 0  5 0  L 39.4000000000015 0  L 54 0  C 56.8 0  59 2.19999999999999  59 5  L 59 12  C 59 14.8  56.8 17  54 17  L 5 17  C 2.19999999999999 17  0 14.8  0 12  Z " stroke-width="2" stroke="#797979" fill="none" transform="matrix(1 0 0 1 486 304 )" mask="url(#clip4)" />
  </g>
</svg>