<?xml version="1.0" encoding="utf-8"?>
<svg version="1.1" xmlns:xlink="http://www.w3.org/1999/xlink" width="116px" height="135px" xmlns="http://www.w3.org/2000/svg">
  <g transform="matrix(1 0 0 1 -324 -264 )">
    <path d="M 87.3020833333333 5.12276785714286  L 110.864583333333 28.6272321428571  C 112.274305555556 30.0334821428571  113.482638888889 31.9419642857143  114.489583333333 34.3526785714286  C 115.496527777778 36.7633928571429  116 38.9732142857143  116 40.9821428571429  L 116 127.767857142857  C 116 129.776785714286  115.295138888889 131.484375  113.885416666667 132.890625  C 112.475694444444 134.296875  110.763888888889 135  108.75 135  L 7.25 135  C 5.23611111111111 135  3.52430555555556 134.296875  2.11458333333333 132.890625  C 0.704861111111111 131.484375  0 129.776785714286  0 127.767857142857  L 0 7.23214285714286  C 0 5.22321428571428  0.704861111111111 3.515625  2.11458333333333 2.109375  C 3.52430555555556 0.703125000000005  5.23611111111111 0  7.25 0  L 74.9166666666667 0  C 76.9305555555556 0  79.1458333333333 0.502232142857149  81.5625 1.50669642857143  C 83.9791666666667 2.51116071428571  85.8923611111111 3.71651785714285  87.3020833333333 5.12276785714286  Z M 80.4296875 11.9029017857143  C 79.8255208333333 11.3002232142857  78.7934027777778 10.7477678571428  77 10.2455357142857  L 77 39  L 105.729166666667 39  C 105.225694444444 37.1149553571428  104.671875 36.0853794642857  104.067708333333 35.4827008928571  L 80.4296875 11.9029017857143  Z M 10 125  L 106 125  L 106 49  L 74.9166666666667 49  C 72.9027777777778 48.2142857142857  71.1909722222222 47.5111607142857  69.78125 46.1049107142857  C 68.3715277777778 44.6986607142857  67.6666666666667 42.9910714285714  67 40.9821428571429  L 67 10  L 10 10  L 10 125  Z M 29 58  L 58 58  C 60.6180555555556 57.8571428571429  62.8836805555556 58.8113839285714  64.796875 60.7198660714286  C 66.7100694444444 62.6283482142857  67.6666666666667 64.8883928571428  67 67.5  L 67 96.4285714285714  C 67.6666666666667 99.0401785714286  66.7100694444444 101.300223214286  64.796875 103.208705357143  C 62.8836805555556 105.1171875  60.6180555555556 106.071428571429  58 106  L 29 106  C 26.3819444444444 106.071428571429  24.1163194444444 105.1171875  22.203125 103.208705357143  C 20.2899305555556 101.300223214286  19.3333333333333 99.0401785714286  20 96.4285714285714  L 20 67.5  C 19.3333333333333 64.8883928571428  20.2899305555556 62.6283482142857  22.203125 60.7198660714286  C 24.1163194444444 58.8113839285714  26.3819444444444 57.8571428571429  29 58  Z M 94.25 57.8571428571429  C 94.4513888888889 57.8571428571429  94.7534722222222 57.9073660714286  95.15625 58.0078125  C 96.1631944444445 58.4095982142857  96.6666666666667 59.1629464285714  96 60.2678571428571  L 96 103.660714285714  C 96.6666666666667 104.765625  96.1631944444445 105.518973214286  95.15625 105.920758928571  C 94.7534722222222 106.021205357143  94.4513888888889 106.071428571429  94.25 106.071428571429  C 93.5451388888889 106.071428571429  92.9661458333333 105.845424107143  92.5130208333333 105.393415178571  L 72.5 85.3543526785714  L 72.5 78.57421875  L 92.5130208333333 58.53515625  C 92.9661458333333 58.0831473214286  93.5451388888889 57.8571428571429  94.25 57.8571428571429  Z " fill-rule="nonzero" fill="#000000" stroke="none" transform="matrix(1 0 0 1 324 264 )" />
  </g>
</svg>